<?xml version="1.0" encoding="UTF-8"?>
<svg id="Layer_1" xmlns="http://www.w3.org/2000/svg" version="1.1" viewBox="0 0 1920 1080">
  <!-- Generator: Adobe Illustrator 29.7.1, SVG Export Plug-In . SVG Version: 2.1.1 Build 8)  -->
  <defs>
    <style>
      .st0 {
        fill: #02b0ca;
      }

      .st1 {
        opacity: .6;
      }

      .st1, .st2 {
        fill: #fff;
      }

      .st3 {
        fill: #f5c235;
      }

      .st4 {
        fill: #0188ac;
      }

      .st5 {
        fill: #6e9f3f;
      }

      .st6 {
        fill: #70a13e;
      }
    </style>
  </defs>
  <rect x="4330.43" width="1920" height="1080"/>
  <rect class="st0" x="2192.83" width="640" height="1080"/>
  <rect class="st6" x="2832.83" width="640" height="1080"/>
  <rect class="st3" x="3472.83" width="640" height="1080"/>
  <g>
    <path class="st2" d="M2559.45,473.15c4.93-.11,7.59.25,11.84,2.86,13.49,8.28,8.61,25.64,8.67,38.85,3.3-.61,6.11-2.3,9.42-3.22,20.22-5.64,41.81-1.27,55.51,15.21,14.29,17.19,13.83,39,10.95,60.14-2.64,19.39-19.34,34.56-39.3,33.16-9.91-.7-20.12-7.25-30.22-2.85-2.2.95-3.66,3.08-5.45,4.12-10.94,6.38-21.05,8.89-33.05,3.18-4.93-2.34-14.41-10.91-15.06-16.39-.77-6.39.51-14.86.7-21.56,10.96.52,22.26,1.23,25.82-11.45l.16-102.06ZM2584.57,553.99c-2.45.5-5.29,3.38-5.82,5.79-.55,2.48-.48,19.95.23,22.05,2.38,7.07,13.75,6.91,15.72-.63.81-3.11.73-15.97.32-19.51-.62-5.4-5-8.81-10.44-7.7ZM2613.97,553.98c-2.67.54-5.27,3.14-5.82,5.82-.69,3.4-.61,16.67-.17,20.37.98,8.27,13.63,9.91,15.96.2.99-4.14,1.02-18.58-.75-22.24-1.66-3.43-5.59-4.88-9.22-4.15Z"/>
    <path class="st2" d="M2315.35,514.17c9.86,21.84,34.27,32.69,57.44,27.02,3.39-.83,8.86-3.95,11.41-4.3.62-.09,1.1.2,1.57.53l52.94,60.91c7.24,21.88-10.7,34.3-30.32,22.8-6.47-3.79-9.24-9.32-14.06-14.66-10.87-12.02-22.12-23.73-32.73-35.99-3.77-3.49-10-1.49-10.58,3.7-.19,1.74.71,3.09.62,4.61-.48,8.8-.1,17.89-.75,26.66-1.99,26.82-34.65,29.39-41.02,4.11l4.11-96.07c.14-.21.95.54,1.36.68Z"/>
    <path class="st1" d="M2315.35,514.17c12.44,4.35,16.36,7.94,30.45,3.44,28.36-9.04,42.58-37.4,62.55-56.43,21.01-20.02,54.01-3.77,39.52,21.74-4.38,7.72-9.47,9.72-15.6,15.17-13.61,12.07-29.16,28.47-44.68,37.41-.91.53-2.18.22-1.81,1.92-.47-.34-.96-.62-1.57-.53-2.55.35-8.02,3.47-11.41,4.3-23.18,5.67-47.58-5.17-57.44-27.02Z"/>
    <path class="st2" d="M2685.09,519.81c3.7-.62,14.27-.55,17.83.31,4.61,1.11,7.04,4.43,8.29,8.8v83.34c-1.04,4.39-4.65,8.51-9.23,9.23-3.67.57-14.98.37-18.45-.61-4.71-1.33-6.81-4.73-7.77-9.32v-81.93c.89-5.1,4.08-8.93,9.33-9.81Z"/>
    <path class="st1" d="M2559.45,473.15l-.16,102.06c-3.56,12.68-14.86,11.96-25.82,11.45.91-32.2,2.58-64.39,3.58-96.59,2.63-10.76,11.66-16.67,22.4-16.91Z"/>
    <path class="st1" d="M2505.44,564.77c.06,13.76,1.6,33.89.02,46.85-.61,4.98-4.94,9.31-9.91,9.91-3.35.41-11.68.37-15.06-.01-6.12-.69-9.84-4.54-10.6-10.6.19-21.99-.25-44.01,0-65.99l35.56,19.83Z"/>
    <path class="st1" d="M2689.19,467.84c31.12-4.89,36.17,40.47,8.56,44.8-31.12,4.89-36.17-40.47-8.56-44.8Z"/>
    <path class="st2" d="M2330.91,469.22c34.66-4.7,34.23,50.17-.55,44.65-24.63-3.91-24.18-41.29.55-44.65Z"/>
    <path class="st1" d="M2484.76,467.85c31.1-4.22,35.26,41.67,6.59,44.88-30.36,3.39-34.5-41.09-6.59-44.88Z"/>
    <path class="st2" d="M2505.44,564.77l-35.56-19.83c.1-8.43-2.53-22.25,8.19-24.98,2.79-.71,15.07-.75,18.1-.28,4.25.66,8.57,4.99,9.23,9.23,1.45,9.25,0,25.72.04,35.86Z"/>
  </g>
  <g>
    <path class="st6" d="M1031.87,434.68c8.02-.18,12.35.4,19.27,4.65,21.95,13.47,14.01,41.71,14.11,63.2,5.36-.99,9.94-3.74,15.33-5.24,32.9-9.18,68.02-2.06,90.31,24.74,23.25,27.96,22.51,63.44,17.82,97.84-4.3,31.54-31.46,56.22-63.93,53.94-16.12-1.13-32.72-11.79-49.17-4.64-3.57,1.55-5.95,5-8.87,6.7-17.8,10.38-34.25,14.47-53.77,5.18-8.02-3.81-23.43-17.74-24.5-26.66-1.24-10.39.83-24.17,1.14-35.07,17.82.84,36.22,2,42-18.62l.27-166.03ZM1072.72,566.19c-3.99.81-8.6,5.5-9.48,9.43-.9,4.03-.78,32.46.37,35.87,3.88,11.5,22.37,11.25,25.57-1.03,1.32-5.06,1.18-25.97.52-31.73-1-8.79-8.13-14.34-16.99-12.53ZM1120.56,566.18c-4.34.88-8.58,5.11-9.46,9.46-1.12,5.53-.99,27.12-.28,33.14,1.59,13.45,22.18,16.12,25.96.33,1.61-6.74,1.65-30.23-1.23-36.18-2.7-5.58-9.09-7.94-14.99-6.75Z"/>
    <path class="st4" d="M634.76,501.42c16.04,35.53,55.74,53.17,93.45,43.95,5.51-1.35,14.41-6.43,18.56-7,1.01-.14,1.79.32,2.56.87l86.12,99.08c11.79,35.6-17.41,55.79-49.33,37.09-10.52-6.16-15.03-15.16-22.88-23.84-17.69-19.56-35.98-38.61-53.24-58.55-6.13-5.68-16.26-2.42-17.21,6.02-.32,2.83,1.15,5.02,1.01,7.49-.78,14.32-.17,29.11-1.22,43.37-3.23,43.62-56.37,47.81-66.73,6.69l6.69-156.29c.23-.34,1.54.88,2.21,1.11Z"/>
    <path class="st0" d="M634.76,501.42c20.24,7.08,26.61,12.91,49.54,5.6,46.14-14.71,69.26-60.84,101.75-91.8,34.18-32.58,87.86-6.14,64.29,35.37-7.13,12.56-15.4,15.82-25.38,24.67-22.13,19.63-47.43,46.31-72.68,60.85-1.49.86-3.55.35-2.94,3.12-.77-.55-1.55-1.01-2.56-.87-4.16.57-13.05,5.65-18.56,7-37.7,9.23-77.41-8.42-93.45-43.95Z"/>
    <path class="st3" d="M1236.25,510.58c6.01-1.01,23.22-.9,29.01.5,7.5,1.81,11.45,7.21,13.49,14.32v135.57c-1.69,7.14-7.56,13.85-15.02,15.02-5.97.93-24.37.61-30.02-.99-7.67-2.17-11.08-7.7-12.64-15.17v-133.29c1.46-8.3,6.64-14.53,15.18-15.96Z"/>
    <path class="st3" d="M1031.87,434.68l-.27,166.03c-5.79,20.62-24.18,19.46-42,18.62,1.48-52.38,4.2-104.75,5.82-157.13,4.29-17.51,18.97-27.11,36.45-27.51Z"/>
    <path class="st0" d="M943.99,583.73c.1,22.39,2.6,55.13.03,76.22-.99,8.09-8.03,15.14-16.13,16.13-5.44.66-18.99.6-24.5-.02-9.95-1.12-16-7.39-17.24-17.24.31-35.77-.41-71.59,0-107.34l57.84,32.26Z"/>
    <path class="st4" d="M1242.92,426.04c50.62-7.95,58.84,65.83,13.93,72.88-50.62,7.95-58.84-65.83-13.93-72.88Z"/>
    <path class="st5" d="M660.08,428.29c56.39-7.65,55.69,81.62-.9,72.63-40.06-6.37-39.34-67.17.9-72.63Z"/>
    <path class="st5" d="M910.36,426.06c50.59-6.86,57.36,67.79,10.72,73-49.39,5.52-56.12-66.85-10.72-73Z"/>
    <path class="st4" d="M943.99,583.73l-57.84-32.26c.16-13.72-4.11-36.2,13.32-40.63,4.53-1.15,24.51-1.23,29.44-.46,6.91,1.08,13.94,8.11,15.02,15.02,2.35,15.05,0,41.83.07,58.33Z"/>
  </g>
  <g>
    <path class="st2" d="M3199.45,473.15c4.93-.11,7.59.25,11.84,2.86,13.49,8.28,8.61,25.64,8.67,38.85,3.3-.61,6.11-2.3,9.42-3.22,20.22-5.64,41.81-1.27,55.51,15.21,14.29,17.19,13.83,39,10.95,60.14-2.64,19.39-19.34,34.56-39.3,33.16-9.91-.7-20.12-7.25-30.22-2.85-2.2.95-3.66,3.08-5.45,4.12-10.94,6.38-21.05,8.89-33.05,3.18-4.93-2.34-14.41-10.91-15.06-16.39-.77-6.39.51-14.86.7-21.56,10.96.52,22.26,1.23,25.82-11.45l.16-102.06ZM3224.57,553.99c-2.45.5-5.29,3.38-5.82,5.79-.55,2.48-.48,19.95.23,22.05,2.38,7.07,13.75,6.91,15.72-.63.81-3.11.73-15.97.32-19.51-.62-5.4-5-8.81-10.44-7.7ZM3253.97,553.98c-2.67.54-5.27,3.14-5.82,5.82-.69,3.4-.61,16.67-.17,20.37.98,8.27,13.63,9.91,15.96.2.99-4.14,1.02-18.58-.75-22.24-1.66-3.43-5.59-4.88-9.22-4.15Z"/>
    <path class="st2" d="M2955.35,514.17c9.86,21.84,34.27,32.69,57.44,27.02,3.39-.83,8.86-3.95,11.41-4.3.62-.09,1.1.2,1.57.53l52.94,60.91c7.24,21.88-10.7,34.3-30.32,22.8-6.47-3.79-9.24-9.32-14.06-14.66-10.87-12.02-22.12-23.73-32.73-35.99-3.77-3.49-10-1.49-10.58,3.7-.19,1.74.71,3.09.62,4.61-.48,8.8-.1,17.89-.75,26.66-1.99,26.82-34.65,29.39-41.02,4.11l4.11-96.07c.14-.21.95.54,1.36.68Z"/>
    <path class="st1" d="M2955.35,514.17c12.44,4.35,16.36,7.94,30.45,3.44,28.36-9.04,42.58-37.4,62.55-56.43,21.01-20.02,54.01-3.77,39.52,21.74-4.38,7.72-9.47,9.72-15.6,15.17-13.61,12.07-29.16,28.47-44.68,37.41-.91.53-2.18.22-1.81,1.92-.47-.34-.96-.62-1.57-.53-2.55.35-8.02,3.47-11.41,4.3-23.18,5.67-47.58-5.17-57.44-27.02Z"/>
    <path class="st2" d="M3325.09,519.81c3.7-.62,14.27-.55,17.83.31,4.61,1.11,7.04,4.43,8.29,8.8v83.34c-1.04,4.39-4.65,8.51-9.23,9.23-3.67.57-14.98.37-18.45-.61-4.71-1.33-6.81-4.73-7.77-9.32v-81.93c.89-5.1,4.08-8.93,9.33-9.81Z"/>
    <path class="st1" d="M3199.45,473.15l-.16,102.06c-3.56,12.68-14.86,11.96-25.82,11.45.91-32.2,2.58-64.39,3.58-96.59,2.63-10.76,11.66-16.67,22.4-16.91Z"/>
    <path class="st1" d="M3145.44,564.77c.06,13.76,1.6,33.89.02,46.85-.61,4.98-4.94,9.31-9.91,9.91-3.35.41-11.68.37-15.06-.01-6.12-.69-9.84-4.54-10.6-10.6.19-21.99-.25-44.01,0-65.99l35.56,19.83Z"/>
    <path class="st1" d="M3329.19,467.84c31.12-4.89,36.17,40.47,8.56,44.8-31.12,4.89-36.17-40.47-8.56-44.8Z"/>
    <path class="st2" d="M2970.91,469.22c34.66-4.7,34.23,50.17-.55,44.65-24.63-3.91-24.18-41.29.55-44.65Z"/>
    <path class="st1" d="M3124.76,467.85c31.1-4.22,35.26,41.67,6.59,44.88-30.36,3.39-34.5-41.09-6.59-44.88Z"/>
    <path class="st2" d="M3145.44,564.77l-35.56-19.83c.1-8.43-2.53-22.25,8.19-24.98,2.79-.71,15.07-.75,18.1-.28,4.25.66,8.57,4.99,9.23,9.23,1.45,9.25,0,25.72.04,35.86Z"/>
  </g>
  <g>
    <path class="st2" d="M3839.45,473.15c4.93-.11,7.59.25,11.84,2.86,13.49,8.28,8.61,25.64,8.67,38.85,3.3-.61,6.11-2.3,9.42-3.22,20.22-5.64,41.81-1.27,55.51,15.21,14.29,17.19,13.83,39,10.95,60.14-2.64,19.39-19.34,34.56-39.3,33.16-9.91-.7-20.12-7.25-30.22-2.85-2.2.95-3.66,3.08-5.45,4.12-10.94,6.38-21.05,8.89-33.05,3.18-4.93-2.34-14.41-10.91-15.06-16.39-.77-6.39.51-14.86.7-21.56,10.96.52,22.26,1.23,25.82-11.45l.16-102.06ZM3864.57,553.99c-2.45.5-5.29,3.38-5.82,5.79-.55,2.48-.48,19.95.23,22.05,2.38,7.07,13.75,6.91,15.72-.63.81-3.11.73-15.97.32-19.51-.62-5.4-5-8.81-10.44-7.7ZM3893.97,553.98c-2.67.54-5.27,3.14-5.82,5.82-.69,3.4-.61,16.67-.17,20.37.98,8.27,13.63,9.91,15.96.2.99-4.14,1.02-18.58-.75-22.24-1.66-3.43-5.59-4.88-9.22-4.15Z"/>
    <path class="st2" d="M3595.35,514.17c9.86,21.84,34.27,32.69,57.44,27.02,3.39-.83,8.86-3.95,11.41-4.3.62-.09,1.1.2,1.57.53l52.94,60.91c7.24,21.88-10.7,34.3-30.32,22.8-6.47-3.79-9.24-9.32-14.06-14.66-10.87-12.02-22.12-23.73-32.73-35.99-3.77-3.49-10-1.49-10.58,3.7-.19,1.74.71,3.09.62,4.61-.48,8.8-.1,17.89-.75,26.66-1.99,26.82-34.65,29.39-41.02,4.11l4.11-96.07c.14-.21.95.54,1.36.68Z"/>
    <path class="st1" d="M3595.35,514.17c12.44,4.35,16.36,7.94,30.45,3.44,28.36-9.04,42.58-37.4,62.55-56.43,21.01-20.02,54.01-3.77,39.52,21.74-4.38,7.72-9.47,9.72-15.6,15.17-13.61,12.07-29.16,28.47-44.68,37.41-.91.53-2.18.22-1.81,1.92-.47-.34-.96-.62-1.57-.53-2.55.35-8.02,3.47-11.41,4.3-23.18,5.67-47.58-5.17-57.44-27.02Z"/>
    <path class="st2" d="M3965.09,519.81c3.7-.62,14.27-.55,17.83.31,4.61,1.11,7.04,4.43,8.29,8.8v83.34c-1.04,4.39-4.65,8.51-9.23,9.23-3.67.57-14.98.37-18.45-.61-4.71-1.33-6.81-4.73-7.77-9.32v-81.93c.89-5.1,4.08-8.93,9.33-9.81Z"/>
    <path class="st1" d="M3839.45,473.15l-.16,102.06c-3.56,12.68-14.86,11.96-25.82,11.45.91-32.2,2.58-64.39,3.58-96.59,2.63-10.76,11.66-16.67,22.4-16.91Z"/>
    <path class="st1" d="M3785.44,564.77c.06,13.76,1.6,33.89.02,46.85-.61,4.98-4.94,9.31-9.91,9.91-3.35.41-11.68.37-15.06-.01-6.12-.69-9.84-4.54-10.6-10.6.19-21.99-.25-44.01,0-65.99l35.56,19.83Z"/>
    <path class="st1" d="M3969.19,467.84c31.12-4.89,36.17,40.47,8.56,44.8-31.12,4.89-36.17-40.47-8.56-44.8Z"/>
    <path class="st2" d="M3610.91,469.22c34.66-4.7,34.23,50.17-.55,44.65-24.63-3.91-24.18-41.29.55-44.65Z"/>
    <path class="st1" d="M3764.76,467.85c31.1-4.22,35.26,41.67,6.59,44.88-30.36,3.39-34.5-41.09-6.59-44.88Z"/>
    <path class="st2" d="M3785.44,564.77l-35.56-19.83c.1-8.43-2.53-22.25,8.19-24.98,2.79-.71,15.07-.75,18.1-.28,4.25.66,8.57,4.99,9.23,9.23,1.45,9.25,0,25.72.04,35.86Z"/>
  </g>
  <g>
    <path class="st2" d="M5362.59,435.61c8.01-.18,12.33.4,19.24,4.64,21.92,13.46,13.99,41.66,14.09,63.13,5.35-.99,9.93-3.73,15.31-5.24,32.86-9.17,67.94-2.06,90.2,24.72,23.22,27.92,22.48,63.37,17.8,97.73-4.29,31.5-31.43,56.16-63.86,53.88-16.1-1.13-32.69-11.77-49.11-4.63-3.57,1.55-5.94,5-8.86,6.7-17.78,10.36-34.21,14.45-53.71,5.17-8.01-3.81-23.41-17.72-24.47-26.63-1.24-10.38.83-24.14,1.14-35.03,17.8.84,36.17,2,41.95-18.6l.27-165.84ZM5403.4,566.97c-3.99.81-8.59,5.49-9.47,9.42-.9,4.03-.78,32.42.37,35.83,3.87,11.49,22.34,11.24,25.54-1.03,1.32-5.06,1.18-25.94.52-31.7-1-8.78-8.12-14.32-16.97-12.52ZM5451.18,566.96c-4.33.88-8.57,5.1-9.45,9.45-1.12,5.53-.99,27.09-.28,33.1,1.59,13.43,22.15,16.1,25.93.33,1.61-6.73,1.65-30.2-1.23-36.14-2.7-5.57-9.08-7.93-14.97-6.74Z"/>
    <path class="st2" d="M4965.94,502.27c16.02,35.49,55.68,53.11,93.34,43.9,5.51-1.35,14.39-6.42,18.54-6.99,1-.14,1.79.32,2.56.87l86.02,98.97c11.77,35.56-17.39,55.73-49.27,37.05-10.51-6.16-15.01-15.14-22.85-23.81-17.67-19.54-35.94-38.57-53.18-58.48-6.12-5.67-16.24-2.42-17.19,6.02-.32,2.83,1.15,5.01,1.01,7.48-.78,14.3-.17,29.07-1.22,43.32-3.23,43.57-56.3,47.76-66.66,6.68l6.68-156.11c.23-.34,1.54.88,2.21,1.11Z"/>
    <path class="st1" d="M4965.94,502.27c20.22,7.07,26.58,12.89,49.48,5.59,46.08-14.7,69.18-60.77,101.63-91.69,34.14-32.54,87.76-6.13,64.22,35.33-7.12,12.54-15.38,15.8-25.35,24.64-22.11,19.61-47.38,46.25-72.6,60.78-1.49.86-3.55.35-2.94,3.12-.77-.55-1.55-1.01-2.56-.87-4.15.57-13.04,5.64-18.54,6.99-37.66,9.22-77.32-8.41-93.34-43.9Z"/>
    <path class="st2" d="M5566.73,511.42c6.01-1.01,23.19-.89,28.97.5,7.49,1.8,11.43,7.2,13.47,14.31v135.41c-1.69,7.13-7.55,13.83-15,15-5.96.93-24.34.61-29.98-.99-7.66-2.17-11.06-7.69-12.63-15.15v-133.13c1.45-8.29,6.63-14.51,15.17-15.94Z"/>
    <path class="st1" d="M5362.59,435.61l-.27,165.84c-5.78,20.6-24.15,19.44-41.95,18.6,1.47-52.32,4.2-104.63,5.82-156.95,4.28-17.49,18.95-27.08,36.4-27.48Z"/>
    <path class="st1" d="M5274.81,584.49c.1,22.36,2.6,55.07.03,76.13-.99,8.08-8.03,15.12-16.11,16.11-5.44.66-18.97.6-24.47-.02-9.94-1.12-15.98-7.38-17.22-17.22.31-35.73-.41-71.5,0-107.22l57.77,32.22Z"/>
    <path class="st1" d="M5573.4,426.99c50.57-7.94,58.77,65.75,13.91,72.8-50.57,7.94-58.77-65.75-13.91-72.8Z"/>
    <path class="st2" d="M4991.23,429.23c56.33-7.64,55.62,81.53-.9,72.54-40.01-6.36-39.29-67.09.9-72.54Z"/>
    <path class="st1" d="M5241.21,427.01c50.53-6.85,57.3,67.72,10.71,72.92-49.34,5.51-56.06-66.77-10.71-72.92Z"/>
    <path class="st2" d="M5274.81,584.49l-57.77-32.22c.16-13.71-4.11-36.16,13.3-40.59,4.53-1.15,24.48-1.23,29.41-.46,6.9,1.08,13.92,8.1,15,15,2.35,15.03,0,41.79.07,58.26Z"/>
  </g>
</svg>